<?xml version="1.0" standalone="no"?>
<!DOCTYPE svg PUBLIC "-//W3C//DTD SVG 20010904//EN"
 "http://www.w3.org/TR/2001/REC-SVG-20010904/DTD/svg10.dtd">
<svg version="1.0" xmlns="http://www.w3.org/2000/svg"
 width="390.000000pt" height="390.000000pt" viewBox="0 0 390.000000 390.000000"
 preserveAspectRatio="xMidYMid meet" style="background: #000000">
<metadata>
Created by potrace 1.11, written by Peter Selinger 2001-2013
</metadata>
<g transform="translate(0.000000,390.000000) scale(0.100000,-0.100000)"
fill="#ffffff" stroke="none">
<path d="M524 2389 c-80 -25 -156 -91 -177 -153 -19 -57 -16 -150 7 -199 37
-76 99 -115 301 -188 76 -28 115 -66 115 -111 0 -41 -8 -53 -44 -72 -55 -28
-126 0 -148 60 -6 19 -17 34 -23 35 -15 1 -166 1 -196 0 -26 -1 -27 -2 -17
-43 15 -67 37 -106 85 -148 70 -61 138 -83 263 -84 96 0 111 2 162 27 100 49
149 119 154 220 7 144 -61 219 -269 296 -130 48 -171 80 -169 132 1 58 60 89
124 67 28 -10 58 -47 58 -73 0 -13 19 -15 120 -15 l120 0 -4 28 c-4 34 -39
110 -63 137 -28 32 -78 64 -125 81 -67 24 -201 26 -274 3z"/>
<path d="M2028 2381 c-2 -9 -4 -212 -3 -451 l0 -435 205 -2 c228 -2 277 4 365
46 149 70 231 197 240 373 14 250 -120 428 -357 474 -18 3 -126 7 -240 8 -180
2 -207 0 -210 -13z m427 -196 c62 -20 105 -56 135 -115 31 -60 33 -185 5 -245
-48 -101 -125 -138 -290 -139 l-60 0 0 254 c-1 140 3 257 6 260 15 11 155 0
204 -15z"/>
<path d="M2945 2390 c-1 -3 -2 -206 -2 -452 l0 -448 282 0 282 0 -1 88 -1 87
-155 1 c-85 1 -163 2 -173 3 -16 1 -17 11 -15 99 l3 97 145 2 c80 0 148 1 153
2 4 1 7 37 7 81 l0 79 -152 3 -153 3 -2 93 -2 92 172 0 172 0 1 85 c1 47 -1
86 -5 86 -21 4 -553 3 -556 -1z"/>
<path d="M1370 2368 c-15 -36 -54 -143 -105 -283 -26 -71 -51 -139 -56 -150
-16 -38 -159 -431 -159 -438 0 -4 51 -7 113 -7 l114 0 13 43 c8 23 21 60 31
83 l17 40 161 -1 c89 0 165 -5 170 -10 5 -6 20 -41 33 -80 l24 -70 116 -3 117
-3 -9 28 c-8 28 -290 792 -311 846 l-11 27 -124 0 c-120 0 -125 -1 -134 -22z
m240 -540 c0 -4 -49 -7 -110 -6 -60 1 -110 2 -110 3 0 3 80 235 101 294 12 34
12 34 66 -125 29 -87 53 -162 53 -166z"/>
</g>
</svg>
